<svg id="svg" version="1.1" xmlns="http://www.w3.org/2000/svg" xmlns:xlink="http://www.w3.org/1999/xlink" width="400" height="266.6666666666667" viewBox="0, 0, 400,266.6666666666667"><g id="svgg"><path id="path0" d="M95.667 101.156 C 93.927 101.507,92.407 102.721,91.570 104.426 L 91.083 105.417 91.038 123.341 L 90.993 141.266 92.440 141.475 C 94.217 141.732,93.470 142.590,98.290 134.750 C 100.488 131.175,104.371 124.875,106.919 120.750 C 109.467 116.625,111.999 112.513,112.546 111.612 C 115.172 107.281,118.132 104.989,122.167 104.162 C 126.623 103.249,128.994 103.909,135.333 107.832 C 137.304 109.051,139.592 110.460,140.417 110.962 C 142.684 112.343,143.312 112.806,144.416 113.910 C 148.140 117.634,149.327 123.357,147.424 128.412 C 146.953 129.663,146.911 129.735,140.418 140.250 C 137.871 144.375,134.399 150.000,132.701 152.750 C 128.911 158.891,126.401 162.957,119.582 174.000 C 116.667 178.721,114.136 182.827,113.958 183.125 L 113.634 183.667 156.539 183.667 L 199.444 183.667 199.847 183.042 C 200.283 182.366,201.462 181.667,202.167 181.667 C 202.871 181.667,204.051 182.366,204.486 183.042 L 204.889 183.667 230.098 183.667 L 255.306 183.667 255.659 183.095 C 256.176 182.259,257.094 181.515,258.328 180.931 L 259.417 180.417 281.873 180.372 L 304.330 180.326 304.373 162.941 C 304.402 151.444,304.360 145.548,304.250 145.534 C 304.158 145.522,303.258 145.480,302.250 145.440 C 299.830 145.344,299.248 145.231,297.981 144.607 C 296.459 143.858,296.554 143.611,298.417 143.470 C 300.274 143.329,301.617 143.010,301.319 142.780 C 301.281 142.750,300.956 142.618,300.597 142.486 C 299.745 142.173,299.618 141.830,300.361 141.844 C 301.118 141.859,303.681 142.253,304.045 142.411 C 304.327 142.532,304.338 141.682,304.295 123.894 L 304.250 105.250 303.761 104.285 C 303.166 103.109,302.125 102.118,300.863 101.527 L 299.917 101.083 198.083 101.060 C 142.075 101.048,95.987 101.091,95.667 101.156 M308.247 123.250 C 308.247 134.800,308.267 139.500,308.292 133.695 C 308.316 127.890,308.316 118.440,308.292 112.695 C 308.267 106.950,308.247 111.700,308.247 123.250 M199.670 110.330 C 213.793 111.246,225.780 121.376,229.059 135.167 C 230.667 141.934,229.960 149.818,227.198 155.902 C 220.451 170.765,204.401 178.376,188.750 174.136 C 187.604 173.826,186.409 173.441,185.750 173.171 C 167.449 165.664,159.669 145.399,168.408 128.000 C 173.459 117.943,183.879 111.000,194.917 110.337 C 196.017 110.271,196.992 110.207,197.083 110.195 C 197.175 110.183,198.339 110.244,199.670 110.330 M117.719 122.416 C 116.619 123.186,116.044 125.009,116.708 125.621 C 117.187 126.062,119.504 127.459,119.833 127.505 C 120.637 127.617,120.854 127.480,121.503 126.458 C 122.580 124.760,122.457 124.477,120.012 123.007 C 118.500 122.098,118.260 122.037,117.719 122.416 M136.314 124.980 C 134.440 126.854,136.652 129.797,139.016 128.575 C 139.650 128.247,140.165 127.408,140.166 126.703 C 140.168 124.572,137.787 123.507,136.314 124.980 M123.736 126.128 C 123.385 126.366,122.333 128.084,122.333 128.419 C 122.333 129.131,125.202 131.333,126.129 131.333 C 127.431 131.333,128.700 128.703,127.792 127.888 C 126.430 126.668,124.302 125.744,123.736 126.128 M114.612 127.619 C 114.198 127.724,112.999 129.613,113.005 130.151 C 113.020 131.386,116.694 133.404,117.584 132.667 C 117.988 132.331,118.830 130.810,118.832 130.412 C 118.836 129.500,115.613 127.367,114.612 127.619 M129.870 129.779 C 129.464 129.942,128.500 131.657,128.503 132.212 C 128.506 132.954,128.557 133.008,130.241 134.065 C 132.435 135.441,132.911 135.342,134.000 133.285 C 134.572 132.205,134.353 131.855,132.333 130.625 C 130.861 129.728,130.395 129.568,129.870 129.779 M120.314 131.649 C 119.560 132.247,118.908 133.710,119.144 134.278 C 119.371 134.827,122.185 136.667,122.797 136.667 C 124.293 136.667,125.429 133.964,124.292 133.110 C 122.172 131.517,121.015 131.093,120.314 131.649 M111.296 132.708 C 110.303 133.482,109.740 135.240,110.305 135.805 C 110.802 136.302,113.435 137.833,113.792 137.833 C 114.669 137.833,116.047 135.758,115.744 134.895 C 115.367 133.825,111.993 132.166,111.296 132.708 M126.574 135.189 C 125.693 135.617,124.883 137.757,125.375 138.357 C 125.595 138.625,128.049 140.193,128.537 140.378 C 129.089 140.586,129.780 140.172,130.314 139.314 C 131.359 137.632,131.232 137.313,128.968 135.943 C 127.360 134.971,127.156 134.906,126.574 135.189 M117.182 136.650 C 115.531 138.417,115.654 139.172,117.814 140.533 C 119.874 141.830,120.307 141.826,121.203 140.500 C 122.293 138.889,122.137 138.473,119.925 137.096 C 118.224 136.036,117.818 135.970,117.182 136.650 M123.223 140.375 C 121.623 142.164,121.756 142.931,123.903 144.288 C 126.150 145.708,126.635 145.620,127.638 143.607 C 128.220 142.439,128.042 142.116,126.184 140.958 C 124.455 139.881,123.783 139.749,123.223 140.375 M284.924 148.760 C 288.468 149.222,291.315 150.401,294.709 152.814 C 298.133 155.247,298.975 156.654,297.471 157.431 C 296.804 157.777,296.474 157.635,295.041 156.385 C 287.145 149.498,277.903 149.528,270.328 156.464 C 268.873 157.797,268.244 157.922,267.547 157.014 C 266.001 155.000,274.418 149.579,280.339 148.776 C 282.659 148.461,282.634 148.461,284.924 148.760 M107.375 150.037 C 106.792 150.318,104.500 154.187,104.500 154.889 C 104.500 155.662,104.782 155.939,106.886 157.228 C 109.827 159.030,109.935 159.005,111.734 156.083 C 113.608 153.039,113.607 153.034,110.346 151.013 C 108.430 149.825,108.063 149.705,107.375 150.037 M308.247 165.167 C 308.247 173.646,308.267 177.115,308.292 172.875 C 308.316 168.635,308.316 161.698,308.292 157.458 C 308.267 153.219,308.247 156.688,308.247 165.167 M286.397 155.990 C 289.738 156.958,294.167 160.002,294.167 161.331 C 294.167 162.989,292.989 163.080,291.156 161.564 C 285.501 156.886,279.615 156.959,274.058 161.777 C 271.953 163.603,270.097 161.961,272.098 160.044 C 276.058 156.250,281.736 154.640,286.397 155.990 M283.917 162.505 C 288.100 163.097,292.089 166.737,289.731 167.812 C 289.089 168.104,288.968 168.060,287.745 167.085 C 284.228 164.283,280.617 164.374,277.417 167.346 C 276.626 168.080,276.104 168.130,275.504 167.530 C 273.841 165.867,278.004 162.825,282.583 162.357 C 282.675 162.348,283.275 162.414,283.917 162.505 M343.205 167.167 C 343.205 167.487,343.240 167.619,343.282 167.458 C 343.323 167.298,343.323 167.035,343.282 166.875 C 343.240 166.715,343.205 166.846,343.205 167.167 M283.857 168.193 C 285.535 168.696,286.703 170.610,286.361 172.296 C 285.523 176.426,279.625 176.367,279.075 172.222 C 278.717 169.524,281.230 167.406,283.857 168.193 M59.936 169.718 C 59.882 169.919,59.837 170.549,59.836 171.118 C 59.834 171.688,59.763 172.888,59.678 173.785 C 59.593 174.682,59.436 176.392,59.330 177.583 C 59.107 180.091,58.568 184.796,58.337 186.250 C 58.250 186.800,58.107 187.700,58.020 188.250 C 57.430 191.962,56.556 195.350,55.507 197.983 C 54.166 201.352,53.336 204.840,52.510 210.583 C 52.032 213.903,51.167 224.023,51.167 226.285 L 51.167 227.143 52.125 227.512 C 54.190 228.309,57.000 228.116,57.000 227.179 C 57.000 226.255,57.693 222.989,58.559 219.833 C 59.373 216.862,61.744 210.330,63.022 207.537 C 63.285 206.962,63.500 206.462,63.500 206.425 C 63.500 206.388,63.770 205.771,64.100 205.054 C 65.053 202.985,66.412 200.042,67.145 198.464 L 67.819 197.012 67.659 194.631 C 67.321 189.572,66.250 183.192,64.408 175.250 C 63.336 170.630,63.434 170.889,62.717 170.755 C 61.956 170.612,60.823 170.087,60.374 169.669 C 60.039 169.357,60.033 169.357,59.936 169.718 M82.148 173.519 C 81.011 174.738,81.278 175.589,83.169 176.775 C 84.876 177.844,85.330 177.894,86.085 177.093 C 87.269 175.838,87.020 175.004,85.110 173.828 C 83.464 172.816,82.864 172.753,82.148 173.519 M343.542 173.583 C 343.544 173.950,343.578 174.080,343.618 173.873 C 343.658 173.666,343.656 173.366,343.615 173.206 C 343.573 173.047,343.540 173.217,343.542 173.583 M90.703 178.260 C 89.174 179.331,89.548 180.635,91.747 181.901 C 93.563 182.947,94.228 182.845,94.906 181.415 C 95.666 179.815,92.198 177.213,90.703 178.260 M99.338 183.376 C 97.363 184.395,97.954 186.162,100.742 187.572 C 102.489 188.456,104.479 186.187,103.032 184.962 C 101.638 183.782,99.953 183.059,99.338 183.376 M111.121 187.708 C 109.320 190.659,108.478 191.735,107.043 192.923 C 102.922 196.334,96.945 196.988,92.112 194.556 L 90.974 193.983 91.029 199.116 L 91.083 204.250 91.527 205.196 C 92.118 206.458,93.109 207.499,94.285 208.095 L 95.250 208.583 174.875 208.626 L 254.500 208.668 254.500 197.001 L 254.500 185.333 229.683 185.333 L 204.866 185.333 204.523 185.915 C 203.472 187.697,200.793 187.643,199.715 185.820 L 199.428 185.333 155.999 185.333 L 112.571 185.333 111.121 187.708 M78.833 186.083 C 79.144 186.404,79.436 186.667,79.482 186.667 C 79.528 186.667,79.311 186.404,79.000 186.083 C 78.689 185.762,78.397 185.500,78.351 185.500 C 78.305 185.500,78.522 185.762,78.833 186.083 M273.333 187.667 C 273.150 187.850,273.000 188.188,273.000 188.417 C 273.000 188.646,273.150 188.983,273.333 189.167 C 273.517 189.350,273.854 189.500,274.083 189.500 C 274.313 189.500,274.650 189.350,274.833 189.167 C 275.017 188.983,275.167 188.646,275.167 188.417 C 275.167 188.188,275.017 187.850,274.833 187.667 C 274.650 187.483,274.313 187.333,274.083 187.333 C 273.854 187.333,273.517 187.483,273.333 187.667 M181.540 190.282 C 186.767 192.758,186.817 200.266,181.623 202.666 C 175.582 205.458,169.508 199.347,172.416 193.402 C 174.010 190.144,178.214 188.707,181.540 190.282 M202.673 190.282 C 210.834 194.305,204.909 206.545,196.667 202.692 C 191.700 200.370,191.596 192.703,196.500 190.394 C 196.912 190.200,197.438 189.958,197.667 189.857 C 198.590 189.452,201.487 189.698,202.673 190.282 M223.452 190.021 C 228.201 191.764,229.537 197.789,225.967 201.359 C 221.603 205.723,214.270 202.676,214.270 196.500 C 214.270 191.696,218.974 188.377,223.452 190.021 M349.473 222.251 C 348.909 222.768,347.460 223.333,346.697 223.333 C 346.379 223.333,346.360 223.460,346.306 225.958 C 346.226 229.714,345.865 230.415,343.499 231.417 C 342.451 231.860,342.956 231.985,345.997 232.034 C 349.494 232.091,349.221 232.222,349.825 230.194 C 350.161 229.067,350.462 228.593,351.642 227.335 C 353.005 225.881,352.813 224.749,350.826 222.546 L 350.068 221.706 349.473 222.251 M331.264 226.285 C 330.320 226.775,328.596 226.986,328.028 226.681 C 327.727 226.521,327.667 226.533,327.667 226.756 C 327.667 228.013,325.081 229.818,322.402 230.430 C 320.807 230.794,320.221 231.078,319.941 231.619 L 319.701 232.083 325.995 232.038 L 332.289 231.992 332.395 231.223 C 332.613 229.627,332.465 225.810,332.186 225.847 C 332.129 225.854,331.715 226.051,331.264 226.285 " stroke="none" fill="#739af2" fill-rule="evenodd"></path><path id="path1" d="M123.266 108.010 C 118.270 108.846,116.158 115.250,119.732 118.723 C 122.183 121.106,126.234 120.932,128.535 118.345 C 132.436 113.962,128.919 107.063,123.266 108.010 M126.724 110.242 C 126.845 110.558,124.544 114.333,124.230 114.333 C 123.665 114.333,123.850 113.748,124.993 111.916 C 126.138 110.082,126.520 109.712,126.724 110.242 M193.583 110.516 C 173.925 112.887,160.909 132.219,166.102 151.333 C 171.777 172.218,196.171 181.720,214.653 170.246 C 226.109 163.134,231.969 149.282,229.140 136.000 C 225.662 119.673,210.106 108.524,193.583 110.516 M124.333 110.978 C 124.333 111.206,124.128 111.347,123.568 111.504 C 120.415 112.387,120.787 116.833,124.014 116.833 C 125.850 116.833,127.163 115.138,126.680 113.389 C 126.493 112.710,126.722 112.225,127.116 112.468 C 128.014 113.024,127.646 115.520,126.497 116.670 C 123.462 119.704,118.818 115.769,121.229 112.206 C 122.063 110.974,124.333 110.076,124.333 110.978 M332.205 122.000 C 332.205 122.321,332.240 122.452,332.282 122.292 C 332.323 122.131,332.323 121.869,332.282 121.708 C 332.240 121.548,332.205 121.679,332.205 122.000 M191.565 123.565 C 191.870 123.692,192.974 124.450,194.018 125.248 C 195.062 126.046,197.042 127.554,198.417 128.598 C 199.792 129.642,201.817 131.185,202.917 132.028 C 204.017 132.871,206.004 134.389,207.333 135.401 C 216.028 142.024,215.405 141.456,215.405 142.750 C 215.405 143.934,215.337 144.004,210.890 147.395 C 206.807 150.509,205.011 151.880,201.250 154.753 C 190.940 162.628,191.834 162.000,190.936 162.000 C 189.870 162.000,189.269 161.650,188.850 160.785 C 188.401 159.858,188.286 125.991,188.729 124.953 C 189.006 124.303,189.578 123.769,190.250 123.534 C 190.922 123.300,190.931 123.300,191.565 123.565 M335.325 129.734 C 331.548 132.369,326.849 132.401,323.620 129.814 L 322.990 129.310 322.120 129.592 C 319.086 130.576,318.793 130.990,316.287 137.833 C 316.102 138.337,315.859 138.975,315.745 139.250 C 315.632 139.525,315.222 140.537,314.833 141.500 C 313.261 145.394,313.485 145.274,309.333 144.426 C 307.632 144.079,305.806 143.676,305.486 143.577 C 305.089 143.454,304.719 144.837,304.808 146.108 C 304.869 146.970,308.302 150.078,310.545 151.302 C 313.624 152.980,317.019 152.530,319.800 150.074 C 320.285 149.645,320.710 149.321,320.743 149.355 C 320.776 149.389,320.999 150.024,321.239 150.767 C 321.702 152.199,321.737 152.235,323.202 152.759 C 323.732 152.949,323.894 152.944,324.335 152.724 C 324.904 152.440,325.570 152.530,326.040 152.954 C 326.381 153.261,328.305 153.191,333.901 152.668 C 335.740 152.497,337.264 152.375,337.286 152.398 C 337.529 152.640,335.713 157.731,334.560 160.039 C 334.069 161.023,333.667 161.911,333.667 162.014 C 333.667 162.249,334.979 163.491,335.630 163.872 L 336.124 164.160 337.687 163.053 C 344.739 158.056,347.349 150.495,345.442 140.583 C 344.079 133.499,342.280 130.535,338.628 129.359 C 336.754 128.756,336.722 128.760,335.325 129.734 M78.564 135.625 C 79.136 137.556,79.731 140.735,80.007 143.332 C 80.109 144.294,80.215 145.104,80.243 145.131 C 80.378 145.267,84.884 146.817,87.083 147.485 C 87.450 147.596,88.338 147.664,89.057 147.635 L 90.365 147.583 92.168 144.667 L 93.972 141.750 92.944 141.625 C 88.317 141.060,87.656 140.783,80.135 136.248 C 78.425 135.218,78.446 135.226,78.564 135.625 M112.408 141.847 C 111.853 142.130,109.500 146.078,109.500 146.726 C 109.500 147.428,109.774 147.679,112.154 149.154 C 114.868 150.836,114.983 150.805,116.768 147.928 C 118.662 144.874,118.653 144.833,115.737 143.020 C 113.755 141.789,113.028 141.532,112.408 141.847 M115.000 146.321 C 115.000 148.175,114.939 148.202,113.199 147.108 C 111.572 146.085,111.480 145.798,112.625 145.311 C 113.060 145.126,113.638 144.873,113.909 144.749 C 114.804 144.340,115.000 144.622,115.000 146.321 M99.065 144.823 C 98.473 145.073,96.107 148.969,96.098 149.707 C 96.089 150.498,96.265 150.665,98.661 152.150 C 101.092 153.656,101.673 153.675,102.526 152.280 C 105.363 147.643,105.375 147.958,102.273 146.022 C 100.320 144.803,99.681 144.564,99.065 144.823 M67.178 147.056 C 67.066 151.862,69.568 159.803,72.362 163.511 C 73.772 165.383,76.817 168.000,77.585 168.000 C 77.719 168.000,79.070 166.022,79.297 165.493 C 79.323 165.433,78.673 164.958,77.853 164.438 C 73.570 161.723,69.374 154.904,67.429 147.500 C 67.259 146.850,67.185 146.721,67.178 147.056 M101.903 147.768 C 102.324 147.930,102.221 148.268,101.317 149.676 C 100.431 151.058,99.962 151.340,99.738 150.625 C 99.674 150.419,99.444 149.861,99.227 149.386 C 98.576 147.957,98.637 147.886,100.583 147.783 C 101.133 147.754,101.596 147.716,101.611 147.698 C 101.627 147.681,101.758 147.712,101.903 147.768 M115.233 155.129 C 114.558 155.684,112.500 159.253,112.500 159.867 C 112.500 160.658,116.314 163.500,117.375 163.500 C 118.176 163.500,120.264 160.852,121.010 158.890 C 121.560 157.445,116.457 154.122,115.233 155.129 M117.504 157.593 C 117.593 157.828,117.857 158.439,118.092 158.950 C 118.618 160.102,118.563 160.257,117.575 160.392 C 115.399 160.690,114.839 160.443,115.420 159.440 C 116.752 157.138,117.185 156.755,117.504 157.593 M102.288 158.293 C 101.730 158.643,99.501 162.205,99.382 162.935 C 99.265 163.649,99.810 164.188,102.039 165.563 C 104.772 167.249,104.870 167.217,106.848 163.976 C 108.541 161.202,108.518 161.135,105.162 159.125 C 103.120 157.902,102.975 157.860,102.288 158.293 M105.386 162.029 C 106.047 162.584,105.901 162.778,104.346 163.403 C 102.815 164.019,102.733 163.998,102.608 162.958 C 102.442 161.574,102.479 160.702,102.708 160.618 C 102.963 160.524,104.659 161.418,105.386 162.029 M96.958 169.451 C 97.165 169.491,97.502 169.491,97.708 169.451 C 97.915 169.411,97.746 169.379,97.333 169.379 C 96.921 169.379,96.752 169.411,96.958 169.451 M258.883 180.810 C 257.212 181.388,255.946 182.534,255.184 184.159 L 254.750 185.083 254.667 198.167 C 254.621 205.362,254.621 214.963,254.667 219.500 L 254.750 227.750 255.240 228.748 C 255.835 229.960,256.996 231.157,258.139 231.736 L 258.989 232.167 283.786 232.169 L 308.583 232.172 309.472 231.711 C 310.755 231.045,311.777 229.989,312.388 228.698 L 312.917 227.583 312.917 206.413 L 312.917 185.243 312.376 184.146 C 311.703 182.778,310.511 181.635,309.079 180.986 L 308.007 180.500 283.879 180.505 C 261.100 180.511,259.701 180.528,258.883 180.810 M201.075 182.059 C 200.569 182.288,199.667 183.220,199.667 183.513 C 199.667 183.606,182.823 183.667,156.625 183.668 L 113.583 183.669 113.167 184.376 C 112.938 184.765,112.725 185.140,112.694 185.208 C 112.664 185.277,132.203 185.333,156.115 185.333 L 199.591 185.333 199.893 185.894 C 201.146 188.222,204.750 187.188,204.750 184.500 C 204.750 182.560,202.810 181.271,201.075 182.059 M305.680 184.224 C 306.920 184.734,307.712 185.362,308.305 186.304 C 309.299 187.883,309.250 186.838,309.250 206.583 L 309.250 224.750 308.812 225.667 C 308.192 226.964,307.310 227.905,306.204 228.448 L 305.250 228.917 284.055 228.961 C 260.146 229.011,261.962 229.105,260.348 227.724 C 258.220 225.902,258.318 226.983,258.371 205.982 L 258.417 188.083 258.797 187.259 C 259.528 185.673,260.871 184.451,262.349 184.027 C 262.705 183.924,270.724 183.859,283.833 183.852 L 304.750 183.841 305.680 184.224 M176.875 189.913 C 169.246 192.064,170.678 203.227,178.583 203.227 C 184.573 203.227,187.589 196.324,183.558 191.841 C 182.007 190.115,179.116 189.282,176.875 189.913 M198.205 189.843 C 194.884 190.498,192.389 194.174,192.981 197.542 C 193.960 203.120,200.693 205.244,204.611 201.212 C 209.259 196.430,204.813 188.541,198.205 189.843 M219.375 189.913 C 212.351 191.893,212.806 201.868,219.981 203.203 C 224.419 204.028,228.539 199.963,227.816 195.473 C 227.176 191.501,223.150 188.849,219.375 189.913 M198.529 193.609 C 198.966 194.005,198.990 198.883,198.558 199.362 C 198.242 199.710,197.661 199.761,197.367 199.467 C 197.086 199.186,197.086 193.814,197.367 193.533 C 197.649 193.251,198.170 193.285,198.529 193.609 M202.407 193.704 C 202.790 194.250,202.784 198.758,202.401 199.306 C 202.048 199.809,201.337 199.737,201.042 199.167 C 200.737 198.578,200.822 193.997,201.145 193.608 C 201.469 193.219,202.102 193.267,202.407 193.704 M179.630 196.550 L 179.583 198.917 179.167 198.963 C 178.874 198.995,178.359 198.717,177.437 198.030 C 175.516 196.596,175.478 196.417,176.885 195.379 C 179.717 193.288,179.693 193.278,179.630 196.550 M222.268 195.092 C 224.025 196.465,224.025 196.526,222.262 197.903 C 220.069 199.615,219.833 199.479,219.833 196.500 C 219.833 193.522,220.077 193.381,222.268 195.092 M279.458 221.792 C 281.681 221.818,285.319 221.818,287.542 221.792 C 289.765 221.765,287.946 221.744,283.500 221.744 C 279.054 221.744,277.235 221.765,279.458 221.792 M279.375 223.458 C 281.644 223.484,285.356 223.484,287.625 223.458 C 289.894 223.432,288.037 223.411,283.500 223.411 C 278.962 223.411,277.106 223.432,279.375 223.458 " stroke="none" fill="#f37c4b" fill-rule="evenodd"></path><path id="path2" d="M91.948 97.016 C 90.135 97.281,88.674 98.380,87.714 100.202 L 87.250 101.083 87.205 120.678 L 87.160 140.273 87.955 140.632 C 88.606 140.926,90.295 141.333,90.860 141.333 C 90.933 141.333,91.013 133.252,91.038 123.375 L 91.083 105.417 91.570 104.426 C 92.189 103.164,93.257 102.096,94.467 101.529 L 95.417 101.083 197.667 101.083 L 299.917 101.083 300.863 101.527 C 302.125 102.118,303.166 103.109,303.761 104.285 L 304.250 105.250 304.303 124.000 L 304.357 142.750 304.861 143.151 C 305.139 143.372,305.827 143.654,306.391 143.779 C 306.955 143.903,307.587 144.043,307.794 144.090 L 308.172 144.174 308.127 122.545 L 308.083 100.917 307.640 100.077 C 306.781 98.450,305.174 97.310,303.312 97.008 C 301.999 96.795,93.405 96.803,91.948 97.016 M122.083 104.171 C 117.319 105.169,115.447 106.914,110.462 115.000 C 108.682 117.888,106.184 121.938,104.911 124.000 C 103.638 126.063,99.845 132.212,96.482 137.667 L 90.368 147.583 88.767 147.583 L 87.166 147.583 87.166 150.207 L 87.167 152.831 85.397 155.667 C 82.990 159.526,82.663 159.053,92.313 165.668 C 95.585 167.912,96.105 168.328,96.249 168.815 L 96.415 169.377 98.166 169.264 C 99.129 169.202,100.085 169.109,100.292 169.058 C 100.840 168.921,100.759 169.296,100.168 169.633 C 99.311 170.120,100.038 170.705,101.946 171.063 C 103.245 171.307,103.431 171.760,102.672 172.826 C 101.740 174.135,100.899 174.123,97.844 172.755 C 95.579 171.741,95.383 171.684,94.510 171.772 C 93.298 171.894,88.724 170.036,82.151 166.750 L 79.384 165.367 78.035 167.559 C 75.202 172.158,74.466 175.176,75.241 179.009 C 76.162 183.561,78.158 185.998,83.809 189.472 L 87.153 191.527 87.201 200.055 L 87.250 208.583 87.716 209.532 C 88.388 210.901,89.725 212.068,91.110 212.496 C 92.194 212.831,92.513 212.833,134.268 212.833 L 176.333 212.833 176.333 220.000 L 176.333 227.167 171.947 227.167 C 165.569 227.167,164.031 227.879,163.335 231.158 L 163.121 232.167 122.579 232.167 L 82.036 232.167 81.939 231.778 C 81.829 231.342,81.144 230.955,79.945 230.652 C 79.149 230.451,77.447 229.465,77.040 228.968 C 76.866 228.755,76.506 228.724,74.956 228.788 C 73.243 228.859,72.276 228.755,71.436 228.410 C 71.069 228.259,71.151 229.869,71.586 231.375 L 71.815 232.167 67.408 232.167 L 63.000 232.167 63.000 231.779 C 63.000 231.183,62.383 230.756,60.833 230.281 C 59.439 229.854,57.781 228.983,57.038 228.289 C 56.702 227.975,56.487 227.939,55.121 227.970 C 53.864 227.998,53.370 227.931,52.417 227.600 C 51.775 227.378,51.225 227.221,51.194 227.251 C 50.877 227.565,50.794 231.131,51.087 231.875 C 51.196 232.151,50.452 232.167,36.862 232.167 C 22.557 232.167,22.522 232.167,22.414 232.508 C 22.355 232.696,22.396 232.958,22.507 233.091 C 22.682 233.303,45.297 233.328,201.145 233.292 L 379.583 233.250 379.639 232.856 C 379.670 232.639,379.619 232.385,379.526 232.292 C 379.411 232.178,355.231 232.130,305.212 232.146 L 231.067 232.169 230.867 231.201 C 230.187 227.906,228.617 227.167,222.303 227.167 L 218.000 227.167 218.000 220.000 L 218.000 212.833 236.250 212.833 L 254.500 212.833 254.500 210.751 L 254.500 208.668 174.875 208.626 L 95.250 208.583 94.285 208.095 C 93.109 207.499,92.118 206.458,91.527 205.196 L 91.083 204.250 91.029 199.116 L 90.974 193.983 92.112 194.556 C 96.948 196.989,102.922 196.334,107.050 192.917 C 108.596 191.637,109.251 190.747,112.394 185.652 C 118.060 176.467,124.058 166.748,126.836 162.250 C 128.422 159.683,131.084 155.371,132.753 152.667 C 134.422 149.962,137.871 144.375,140.418 140.250 C 146.911 129.735,146.953 129.663,147.424 128.412 C 149.327 123.357,148.140 117.634,144.416 113.910 C 143.312 112.806,142.684 112.343,140.417 110.962 C 139.592 110.460,137.304 109.051,135.333 107.832 C 128.996 103.911,126.550 103.235,122.083 104.171 M328.167 107.343 C 322.904 107.767,320.264 111.511,320.005 118.917 C 319.838 123.701,319.437 124.862,316.825 128.117 C 314.240 131.339,313.960 134.132,316.044 135.916 L 316.726 136.499 317.656 134.207 C 319.049 130.772,319.468 130.388,322.956 129.354 C 325.004 128.746,325.145 128.676,325.801 127.928 C 326.895 126.682,327.019 123.860,325.970 124.090 C 323.350 124.665,322.201 116.061,324.542 113.394 C 325.495 112.309,325.902 112.227,326.270 113.047 C 327.590 115.992,329.573 117.800,331.808 118.096 L 332.699 118.214 332.599 119.565 C 332.544 120.309,332.454 121.403,332.399 121.996 C 332.049 125.804,333.378 128.206,336.129 128.737 C 339.212 129.332,340.983 130.221,342.357 131.861 L 343.065 132.707 343.308 132.062 C 344.668 128.450,341.676 118.722,337.079 111.811 C 334.244 107.549,333.048 106.949,328.167 107.343 M126.750 108.493 C 131.247 110.561,131.329 117.265,126.887 119.622 C 123.023 121.672,118.700 119.551,118.002 115.262 C 117.213 110.416,122.328 106.459,126.750 108.493 M69.583 111.776 C 67.225 112.279,65.118 113.352,63.958 114.640 C 61.826 117.009,65.923 125.500,69.198 125.500 C 71.499 125.500,72.578 124.306,72.465 121.883 C 72.405 120.595,72.554 120.431,73.794 120.423 C 74.992 120.415,75.204 120.069,75.596 117.488 C 75.741 116.532,76.004 115.429,76.180 115.037 C 77.445 112.220,74.448 110.738,69.583 111.776 M120.012 123.007 C 122.457 124.477,122.580 124.760,121.503 126.458 C 120.854 127.480,120.637 127.617,119.833 127.505 C 119.504 127.459,117.187 126.062,116.708 125.621 C 116.192 125.145,116.235 124.498,116.848 123.502 C 117.824 121.915,118.118 121.869,120.012 123.007 M139.135 124.671 C 140.532 125.523,140.462 127.827,139.016 128.575 C 138.064 129.067,137.049 128.921,136.314 128.186 C 134.382 126.254,136.797 123.245,139.135 124.671 M126.153 126.776 C 128.441 128.181,128.584 128.520,127.582 130.169 C 126.677 131.659,126.340 131.683,124.308 130.401 C 122.096 129.005,121.948 128.655,122.944 127.164 C 123.931 125.688,124.307 125.643,126.153 126.776 M116.973 128.557 C 119.018 129.802,119.175 130.149,118.348 131.592 C 117.405 133.234,116.883 133.293,114.833 131.992 C 112.696 130.635,112.593 130.348,113.653 128.707 C 114.596 127.250,114.810 127.240,116.973 128.557 M132.333 130.625 C 134.353 131.855,134.572 132.205,134.000 133.285 C 132.911 135.342,132.435 135.441,130.241 134.065 C 128.184 132.775,128.046 132.383,129.079 130.769 C 129.978 129.362,130.241 129.351,132.333 130.625 M122.622 132.018 C 125.146 133.551,125.312 133.911,124.258 135.559 C 123.345 136.987,123.005 137.003,120.901 135.719 C 118.903 134.499,118.732 134.171,119.428 132.874 C 120.358 131.142,120.928 130.989,122.622 132.018 M114.030 133.466 C 115.969 134.674,116.113 134.962,115.429 136.269 C 114.484 138.074,114.020 138.170,112.037 136.972 C 109.754 135.593,109.584 135.232,110.514 133.741 C 111.497 132.166,111.893 132.135,114.030 133.466 M128.968 135.943 C 131.232 137.313,131.359 137.632,130.314 139.314 C 129.430 140.736,129.025 140.751,126.917 139.440 C 124.907 138.190,124.762 137.811,125.699 136.245 C 126.605 134.730,126.915 134.701,128.968 135.943 M119.925 137.096 C 122.137 138.473,122.293 138.889,121.203 140.500 C 120.307 141.826,119.874 141.830,117.814 140.533 C 115.918 139.339,115.734 139.012,116.329 137.890 C 117.377 135.915,117.859 135.808,119.925 137.096 M126.184 140.958 C 128.042 142.116,128.220 142.439,127.638 143.607 C 126.635 145.620,126.150 145.708,123.903 144.288 C 121.997 143.083,121.774 142.612,122.517 141.370 C 123.543 139.653,124.005 139.601,126.184 140.958 M115.737 143.020 C 118.653 144.833,118.662 144.874,116.768 147.928 C 114.983 150.805,114.868 150.836,112.154 149.154 C 108.896 147.135,108.900 147.149,110.783 144.099 C 112.591 141.171,112.718 141.144,115.737 143.020 M102.273 146.022 C 105.064 147.763,105.148 147.991,103.809 150.181 C 103.338 150.952,102.760 151.897,102.526 152.280 C 101.673 153.675,101.092 153.656,98.661 152.150 C 95.462 150.168,95.449 150.117,97.410 147.028 C 99.210 144.190,99.307 144.170,102.273 146.022 M304.333 163.069 L 304.333 180.500 306.250 180.500 L 308.167 180.500 308.167 165.196 L 308.167 149.892 306.515 148.223 C 305.575 147.273,304.839 146.386,304.807 146.165 C 304.776 145.951,304.656 145.745,304.542 145.707 C 304.376 145.653,304.333 149.200,304.333 163.069 M110.346 151.013 C 113.607 153.034,113.608 153.039,111.734 156.083 C 109.935 159.005,109.827 159.030,106.886 157.228 C 103.937 155.421,103.907 155.289,105.750 152.267 C 107.515 149.372,107.642 149.337,110.346 151.013 M321.401 152.607 C 321.338 152.943,321.390 153.557,321.524 154.054 C 321.753 154.904,321.744 154.956,320.960 157.583 C 319.946 160.983,318.927 165.023,318.579 167.023 C 318.268 168.807,318.380 170.726,319.165 177.083 C 320.180 185.309,320.539 188.125,321.178 192.917 C 321.362 194.292,321.582 195.942,321.666 196.583 C 321.751 197.225,322.088 199.700,322.416 202.083 C 322.743 204.467,323.081 206.942,323.166 207.583 C 324.355 216.562,325.506 224.195,325.739 224.646 C 326.032 225.211,327.122 226.215,327.854 226.594 C 328.987 227.180,332.215 226.356,332.417 225.429 C 332.619 224.501,333.783 204.073,333.842 200.417 C 333.853 199.779,333.891 199.662,334.006 199.917 C 334.089 200.100,334.826 201.787,335.643 203.667 C 337.105 207.029,337.440 207.766,339.158 211.417 C 342.831 219.219,344.507 222.491,345.034 222.884 C 345.996 223.602,348.293 223.298,349.428 222.301 L 350.000 221.799 349.998 220.024 C 349.989 213.292,348.912 206.604,346.411 197.750 C 344.416 190.688,344.325 189.954,343.672 175.750 C 343.186 165.173,343.094 164.409,341.982 161.685 C 341.625 160.812,341.333 160.067,341.333 160.030 C 341.333 159.992,340.850 160.414,340.258 160.967 C 339.667 161.520,338.448 162.499,337.550 163.143 C 336.170 164.131,335.869 164.430,335.609 165.072 C 334.974 166.640,332.487 168.184,331.397 167.688 C 330.869 167.447,330.894 167.234,331.579 166.159 C 332.288 165.046,332.309 164.876,331.683 165.322 C 331.164 165.691,330.833 165.764,330.833 165.509 C 330.833 165.226,332.530 163.101,333.100 162.670 C 333.405 162.439,333.657 162.155,333.661 162.039 C 333.664 161.923,334.069 161.023,334.560 160.039 C 335.713 157.731,337.529 152.640,337.286 152.398 C 337.264 152.375,335.740 152.497,333.901 152.668 C 332.061 152.840,329.606 153.034,328.445 153.098 C 327.284 153.163,326.333 153.231,326.333 153.249 C 326.333 153.268,326.415 153.518,326.515 153.803 C 326.882 154.858,326.024 156.167,324.965 156.167 C 323.808 156.167,323.145 154.615,323.738 153.293 C 323.831 153.085,323.780 152.973,323.559 152.897 C 323.389 152.839,322.859 152.619,322.380 152.408 L 321.511 152.023 321.401 152.607 M324.345 153.606 C 323.909 154.160,323.905 154.738,324.333 155.167 C 324.776 155.609,325.417 155.592,325.741 155.130 C 326.567 153.950,325.227 152.486,324.345 153.606 M118.634 156.124 C 121.659 157.998,121.658 157.993,119.681 161.203 C 117.997 163.938,117.878 163.970,115.258 162.390 C 111.931 160.386,111.898 160.278,113.692 157.357 C 115.578 154.285,115.640 154.270,118.634 156.124 M105.162 159.125 C 108.518 161.135,108.541 161.202,106.848 163.976 C 104.870 167.217,104.772 167.249,102.039 165.563 C 98.848 163.594,98.815 163.474,100.646 160.500 C 102.435 157.593,102.546 157.559,105.162 159.125 M85.110 173.828 C 87.020 175.004,87.269 175.838,86.085 177.093 C 85.330 177.894,84.876 177.844,83.169 176.775 C 81.278 175.589,81.011 174.738,82.148 173.519 C 82.864 172.753,83.464 172.816,85.110 173.828 M93.453 178.834 C 95.380 180.020,95.637 181.213,94.206 182.338 C 93.217 183.116,89.833 181.286,89.833 179.973 C 89.833 177.994,91.325 177.525,93.453 178.834 M101.640 184.035 C 103.615 185.260,103.823 185.669,103.100 186.902 C 102.290 188.286,101.280 188.190,99.067 186.522 C 98.068 185.768,97.916 185.088,98.539 184.164 C 99.334 182.984,99.906 182.960,101.640 184.035 M267.900 187.461 C 267.004 188.059,267.487 189.500,268.583 189.500 C 269.552 189.500,270.067 188.248,269.362 187.609 C 269.049 187.326,268.227 187.243,267.900 187.461 M275.083 222.167 C 274.833 222.443,274.813 222.574,274.970 222.917 L 275.160 223.333 283.491 223.333 C 291.557 223.333,291.827 223.323,291.994 223.011 C 292.229 222.573,292.212 222.402,291.905 222.095 C 291.447 221.637,275.501 221.705,275.083 222.167 " stroke="none" fill="#1b3c76" fill-rule="evenodd"></path><path id="path3" d="M0.000 133.333 L 0.000 266.667 200.000 266.667 L 400.000 266.667 400.000 133.333 L 400.000 0.000 200.000 0.000 L 0.000 0.000 0.000 133.333 M279.209 50.342 C 285.344 50.829,289.081 53.112,290.926 57.500 C 293.931 64.650,293.610 72.094,290.138 75.764 C 288.726 77.258,288.312 77.405,282.667 78.416 C 268.322 80.986,265.274 81.959,266.750 83.500 C 269.219 86.077,280.785 87.107,286.580 85.267 C 287.307 85.036,287.931 84.876,287.967 84.911 C 288.221 85.165,286.115 90.749,284.495 94.120 L 283.195 96.824 293.639 96.870 L 304.083 96.917 305.015 97.374 C 306.195 97.954,307.232 98.992,307.804 100.167 L 308.250 101.083 308.294 122.625 C 308.318 134.473,308.366 144.167,308.401 144.167 C 308.435 144.167,309.053 144.279,309.773 144.415 C 313.483 145.119,313.222 145.324,315.265 140.108 L 316.645 136.586 316.072 136.114 C 314.038 134.437,314.055 131.659,316.116 128.903 C 316.465 128.437,317.117 127.575,317.566 126.986 C 319.316 124.693,319.833 122.953,319.835 119.344 C 319.839 112.007,322.815 107.655,328.068 107.305 C 329.085 107.238,330.120 107.133,330.368 107.073 C 331.449 106.812,333.640 107.657,334.788 108.778 C 339.969 113.837,344.990 127.391,343.406 132.040 C 343.174 132.719,343.173 132.861,343.389 133.280 C 343.839 134.150,344.786 137.065,345.139 138.667 C 347.130 147.702,346.105 154.516,342.057 159.143 L 341.344 159.959 341.770 160.842 C 343.093 163.585,343.288 164.834,343.667 173.000 C 344.257 185.708,344.586 190.335,345.030 192.167 C 345.326 193.389,346.337 197.026,346.598 197.807 C 346.922 198.777,348.456 204.911,348.585 205.750 C 348.641 206.117,348.752 206.754,348.831 207.167 C 349.552 210.924,350.162 216.927,350.169 220.333 L 350.171 221.583 351.168 222.750 C 353.058 224.962,353.086 225.770,351.348 227.828 C 350.529 228.797,350.150 229.401,350.007 229.965 C 349.898 230.397,349.701 230.996,349.571 231.297 C 349.440 231.598,349.333 231.880,349.333 231.922 C 349.333 231.965,356.112 232.000,364.396 232.000 C 380.693 232.000,379.933 231.957,379.804 232.866 L 379.750 233.250 201.083 233.250 L 22.417 233.250 22.362 232.866 C 22.234 231.959,21.552 232.000,36.850 232.000 L 50.992 232.000 50.880 231.458 C 50.725 230.703,50.736 230.164,50.978 226.750 C 51.095 225.100,51.257 222.700,51.337 221.417 C 52.009 210.711,53.284 203.280,55.364 197.937 C 56.896 194.001,57.721 190.234,58.562 183.333 C 58.957 180.095,59.073 178.983,59.513 174.250 C 59.616 173.150,59.679 171.162,59.653 169.833 C 59.239 148.109,62.593 132.356,68.155 129.902 C 68.855 129.593,69.167 128.591,69.167 126.646 L 69.167 125.748 68.482 125.534 C 66.141 124.804,63.167 119.571,63.167 116.183 C 63.167 113.770,67.596 111.486,72.333 111.458 C 75.998 111.436,77.492 112.715,76.331 114.881 C 76.026 115.450,76.018 115.551,76.239 115.978 C 76.952 117.358,77.580 121.183,77.470 123.483 C 77.376 125.443,77.128 125.823,75.728 126.147 L 74.733 126.377 74.741 128.147 C 74.745 129.120,74.695 130.107,74.630 130.340 C 74.528 130.704,74.590 130.806,75.072 131.065 C 75.959 131.543,77.708 133.404,78.165 134.357 C 78.489 135.033,78.771 135.339,79.417 135.720 C 81.555 136.980,86.844 140.000,86.913 140.000 C 86.956 140.000,87.012 131.281,87.037 120.625 L 87.083 101.250 87.622 100.149 C 88.236 98.894,89.306 97.815,90.471 97.277 L 91.250 96.917 109.993 96.833 L 128.736 96.750 126.743 95.149 C 121.857 91.222,120.024 90.235,113.583 88.059 C 105.498 85.329,103.731 83.401,105.938 79.722 C 107.733 76.730,110.643 75.732,114.250 76.872 C 123.290 79.730,130.345 85.684,135.417 94.737 L 136.583 96.819 138.803 96.826 L 141.022 96.833 140.908 96.458 C 140.705 95.795,138.877 92.303,137.788 90.500 C 135.155 86.142,133.375 84.139,129.372 81.034 C 124.253 77.063,123.196 75.427,124.492 73.487 C 126.322 70.749,129.468 70.311,132.467 72.375 C 138.811 76.742,143.197 84.587,144.417 93.750 C 144.564 94.850,144.721 95.994,144.766 96.292 L 144.848 96.833 149.758 96.833 C 152.458 96.833,154.667 96.801,154.667 96.762 C 154.667 96.722,154.449 96.216,154.183 95.637 C 152.886 92.813,151.548 88.833,151.896 88.833 C 151.930 88.833,152.286 88.950,152.687 89.093 C 156.370 90.402,164.396 89.948,166.130 88.332 C 167.030 87.493,165.159 86.693,159.500 85.496 C 158.171 85.215,156.371 84.835,155.500 84.651 C 154.629 84.468,153.395 84.197,152.757 84.049 C 148.552 83.075,147.433 76.349,150.431 70.068 C 152.450 65.838,158.317 64.564,166.164 66.651 C 166.850 66.833,167.441 67.074,167.479 67.187 C 167.699 67.848,171.689 75.654,172.754 77.508 C 178.813 88.052,179.713 84.473,174.433 70.833 C 173.892 69.435,173.751 68.903,173.911 68.866 C 174.666 68.693,178.369 70.012,181.408 71.536 C 184.217 72.945,191.833 77.502,191.833 77.773 C 191.833 77.814,191.725 78.388,191.593 79.049 C 190.021 86.902,189.733 93.939,190.963 94.411 C 192.445 94.980,193.329 90.892,193.332 83.458 C 193.333 81.281,193.378 79.500,193.433 79.500 C 193.797 79.500,196.479 81.500,197.593 82.602 C 202.796 87.749,204.291 92.067,202.420 96.542 C 202.305 96.816,202.646 96.833,208.246 96.833 C 211.518 96.833,214.166 96.777,214.131 96.708 C 211.485 91.519,211.188 88.288,212.932 83.645 C 214.362 79.838,221.381 72.344,225.584 70.138 L 226.750 69.526 226.752 76.971 C 226.754 86.215,227.156 89.400,228.532 91.070 C 230.867 93.903,232.023 87.342,230.844 77.953 C 230.761 77.292,230.608 76.037,230.504 75.167 C 230.400 74.296,230.092 72.088,229.819 70.261 C 229.419 67.572,229.365 66.900,229.537 66.738 C 229.860 66.435,235.258 63.233,238.083 61.668 C 245.683 57.459,252.939 54.506,255.698 54.501 L 256.313 54.500 255.561 56.292 C 251.400 66.211,249.009 74.064,249.647 75.708 C 250.673 78.350,256.406 70.272,264.165 55.250 C 265.018 53.600,265.784 52.161,265.869 52.053 C 266.185 51.647,270.572 50.759,273.833 50.441 C 276.756 50.156,276.838 50.154,279.209 50.342 M125.095 111.928 C 124.002 113.686,123.812 114.167,124.211 114.167 C 124.430 114.167,126.667 110.700,126.667 110.360 C 126.667 109.770,126.063 110.372,125.095 111.928 M123.083 110.867 C 119.453 112.177,120.132 117.571,123.928 117.581 C 126.311 117.587,128.077 115.206,127.314 113.017 C 127.005 112.129,126.743 112.488,126.808 113.713 C 126.908 115.600,125.716 117.000,124.008 117.000 C 120.795 117.000,120.282 112.533,123.375 111.486 C 124.252 111.189,124.542 110.778,123.917 110.718 C 123.733 110.701,123.358 110.768,123.083 110.867 M324.708 121.118 C 323.858 121.281,324.578 121.833,325.642 121.833 C 326.450 121.833,326.833 121.700,326.833 121.420 C 326.833 121.084,325.712 120.924,324.708 121.118 M189.867 123.807 C 188.570 124.499,188.669 122.935,188.668 142.730 C 188.667 162.629,188.564 161.097,189.941 161.750 C 191.231 162.363,190.865 162.578,198.617 156.643 C 204.297 152.294,205.773 151.166,210.667 147.437 C 214.758 144.319,214.949 144.161,215.144 143.733 C 215.716 142.477,215.225 141.545,213.167 139.981 C 212.296 139.320,210.796 138.176,209.833 137.439 C 198.283 128.602,191.896 123.785,191.557 123.657 C 190.964 123.431,190.493 123.473,189.867 123.807 M113.027 145.256 C 111.557 145.942,111.564 145.986,113.304 147.051 C 114.974 148.074,115.047 148.033,114.877 146.158 C 114.725 144.479,114.708 144.470,113.027 145.256 M80.167 146.530 C 80.167 147.812,81.145 151.429,82.659 155.750 C 83.699 158.716,83.527 158.501,84.109 157.562 C 84.386 157.115,85.150 155.882,85.806 154.821 L 87.000 152.892 86.995 150.238 L 86.990 147.583 83.722 146.500 C 81.925 145.904,80.390 145.392,80.311 145.361 C 80.231 145.331,80.167 145.857,80.167 146.530 M100.000 147.951 C 98.788 148.047,98.796 148.030,99.341 149.352 C 100.168 151.357,100.216 151.361,101.320 149.503 C 102.358 147.756,102.364 147.763,100.000 147.951 M280.250 148.924 C 273.965 149.955,265.851 155.290,267.835 157.085 C 268.463 157.653,269.051 157.480,270.228 156.378 C 277.728 149.362,287.449 149.364,295.258 156.382 C 296.434 157.439,296.664 157.542,297.330 157.310 C 298.522 156.894,298.205 155.826,296.457 154.372 C 291.059 149.884,285.594 148.047,280.250 148.924 M319.612 150.322 C 316.334 153.033,312.904 153.131,309.208 150.618 L 308.333 150.023 308.333 165.345 C 308.333 177.543,308.376 180.667,308.543 180.667 C 309.488 180.667,311.727 182.549,312.379 183.892 C 313.200 185.581,313.190 185.272,313.135 207.000 L 313.083 227.417 312.709 228.333 C 312.208 229.558,311.344 230.615,310.222 231.375 L 309.300 232.000 314.483 232.000 C 317.362 232.000,319.667 231.935,319.667 231.853 C 319.667 231.422,320.768 230.670,321.650 230.500 C 324.044 230.039,326.181 228.945,326.982 227.770 C 327.679 226.749,327.676 226.654,326.932 226.087 C 326.045 225.410,325.390 224.420,325.279 223.589 C 324.861 220.456,324.455 217.539,324.107 215.167 C 323.966 214.204,323.732 212.517,323.587 211.417 C 323.441 210.317,323.255 208.967,323.171 208.417 C 323.088 207.867,322.942 206.854,322.846 206.167 C 322.751 205.479,322.596 204.392,322.502 203.750 C 322.409 203.108,322.258 201.946,322.167 201.167 C 322.076 200.387,321.931 199.262,321.845 198.667 C 321.541 196.553,320.929 192.005,320.646 189.750 C 320.554 189.017,320.413 187.929,320.333 187.333 C 320.043 185.171,319.815 183.377,319.582 181.417 C 319.451 180.317,319.263 178.779,319.165 178.000 C 317.924 168.134,317.983 167.379,320.726 157.984 C 321.625 154.906,321.629 154.878,321.400 153.993 C 321.241 153.381,321.216 152.931,321.320 152.555 C 321.467 152.023,320.935 149.485,320.682 149.509 C 320.628 149.514,320.146 149.880,319.612 150.322 M324.083 153.069 C 323.013 154.139,323.634 156.000,325.061 156.000 C 325.853 156.000,326.500 155.239,326.500 154.308 C 326.500 152.944,324.985 152.167,324.083 153.069 M325.398 153.188 C 326.656 153.762,326.074 155.901,324.749 155.568 C 323.887 155.352,323.689 153.935,324.439 153.345 C 324.955 152.939,324.879 152.952,325.398 153.188 M280.373 155.840 C 276.081 156.611,270.529 160.506,271.624 161.978 C 272.191 162.741,272.861 162.661,273.907 161.704 C 279.153 156.910,285.358 156.745,290.998 161.249 C 292.998 162.845,294.000 162.886,294.000 161.371 C 294.000 160.101,289.350 156.931,286.250 156.090 C 285.056 155.765,281.606 155.619,280.373 155.840 M116.017 158.672 C 114.935 160.376,114.923 160.333,116.486 160.333 C 118.588 160.333,118.589 160.331,117.804 158.542 C 117.140 157.029,117.056 157.035,116.017 158.672 M102.669 162.042 C 102.673 163.967,102.695 163.985,104.259 163.310 C 105.936 162.587,105.942 162.499,104.388 161.503 C 102.653 160.391,102.666 160.387,102.669 162.042 M281.500 162.667 C 279.024 163.008,275.167 165.385,275.167 166.570 C 275.167 167.879,276.403 168.069,277.674 166.957 C 280.908 164.128,284.889 164.213,288.083 167.179 C 288.835 167.877,289.392 167.957,289.908 167.440 C 290.523 166.826,290.462 166.247,289.708 165.549 C 287.290 163.308,284.348 162.274,281.500 162.667 M281.539 168.345 C 280.693 168.603,279.567 169.787,279.332 170.667 C 278.335 174.386,282.902 176.893,285.386 173.990 C 287.713 171.272,285.000 167.290,281.539 168.345 M204.833 184.583 L 204.833 185.333 229.734 185.333 L 254.634 185.333 254.800 184.875 C 254.891 184.623,255.019 184.285,255.084 184.125 C 255.196 183.848,253.937 183.833,230.018 183.833 L 204.833 183.833 204.833 184.583 M79.857 189.567 C 79.744 190.859,79.582 192.442,79.496 193.083 C 79.410 193.725,79.222 195.300,79.078 196.583 C 78.933 197.867,78.669 199.967,78.491 201.250 C 77.851 205.854,77.710 207.149,77.174 213.333 C 76.927 216.179,76.796 223.777,76.951 226.215 C 77.025 227.388,77.024 228.410,76.947 228.486 C 76.597 228.836,78.968 230.310,80.440 230.656 C 81.331 230.866,82.000 231.338,82.000 231.756 C 82.000 232.130,129.941 232.123,131.002 231.749 C 131.392 231.612,132.583 231.457,133.648 231.406 C 136.997 231.244,137.033 231.454,133.210 228.867 C 128.660 225.789,127.697 224.341,129.493 223.280 C 131.886 221.867,134.280 223.932,136.363 229.208 C 137.088 231.043,137.312 231.273,137.970 230.855 C 138.464 230.542,136.033 224.923,134.178 222.091 C 131.728 218.350,131.530 217.157,133.250 216.499 C 135.954 215.465,137.935 218.092,139.158 224.333 C 139.463 225.887,140.000 229.564,140.000 230.095 C 140.000 230.237,140.426 230.288,141.469 230.272 C 143.097 230.248,144.041 230.692,144.267 231.591 L 144.369 232.000 153.678 232.000 L 162.987 232.000 163.168 231.292 C 164.084 227.705,165.531 227.005,172.042 227.002 L 176.167 227.000 176.167 220.000 L 176.167 213.000 134.292 212.998 C 89.592 212.996,91.682 213.033,90.083 212.206 C 87.255 210.742,87.002 209.683,87.001 199.313 L 87.000 191.542 85.125 190.410 C 84.094 189.787,82.533 188.814,81.656 188.248 L 80.063 187.217 79.857 189.567 M262.649 187.684 C 262.239 188.095,262.315 188.942,262.794 189.299 C 263.239 189.631,264.007 189.476,264.376 188.978 C 265.180 187.896,263.612 186.721,262.649 187.684 M197.339 193.822 C 197.244 194.001,197.167 195.195,197.167 196.500 C 197.167 199.316,197.574 200.193,198.467 199.300 C 198.802 198.965,198.743 193.732,198.403 193.601 C 197.915 193.414,197.513 193.498,197.339 193.822 M201.200 193.700 C 201.062 193.838,201.000 194.700,201.000 196.500 C 201.000 199.228,201.068 199.500,201.750 199.500 C 202.432 199.500,202.500 199.228,202.500 196.500 C 202.500 193.772,202.432 193.500,201.750 193.500 C 201.558 193.500,201.310 193.590,201.200 193.700 M177.438 195.101 C 175.668 196.455,175.666 196.520,177.330 197.810 C 179.570 199.546,179.667 199.493,179.667 196.513 C 179.667 193.535,179.566 193.471,177.438 195.101 M220.200 194.200 C 219.824 194.576,219.931 198.618,220.323 198.828 C 220.777 199.071,223.417 197.082,223.417 196.497 C 223.417 195.768,220.625 193.775,220.200 194.200 M67.307 198.417 C 67.155 198.783,66.678 199.833,66.247 200.750 C 64.996 203.413,64.333 204.854,64.333 204.912 C 64.333 204.942,64.042 205.593,63.685 206.358 C 60.771 212.618,57.167 224.034,57.167 227.007 C 57.167 227.333,57.087 227.680,56.989 227.777 C 56.531 228.236,59.576 229.934,61.695 230.402 C 62.299 230.535,63.167 231.290,63.167 231.681 C 63.167 231.987,63.343 232.000,67.405 232.000 L 71.643 232.000 71.483 231.458 C 71.395 231.160,71.251 230.354,71.163 229.667 C 71.053 228.809,70.908 228.338,70.702 228.167 C 70.330 227.859,70.181 227.489,69.996 226.417 C 69.917 225.958,69.732 224.908,69.585 224.083 C 69.326 222.633,68.926 220.046,68.425 216.583 C 67.540 210.470,67.131 203.219,67.512 200.392 C 67.610 199.662,67.666 198.769,67.637 198.407 L 67.583 197.750 67.307 198.417 M333.933 201.208 C 333.883 201.690,333.761 204.108,333.660 206.583 C 333.434 212.156,333.142 217.182,332.672 223.583 C 332.578 224.867,332.546 226.854,332.600 228.000 C 332.654 229.146,332.628 230.515,332.541 231.042 L 332.384 232.000 337.543 232.000 L 342.702 232.000 343.013 231.605 C 343.183 231.388,343.532 231.166,343.787 231.112 C 345.542 230.738,346.067 229.607,346.136 226.042 L 346.189 223.333 345.784 223.333 C 344.731 223.333,344.050 222.099,337.847 208.954 C 337.381 207.967,337.000 207.130,337.000 207.095 C 337.000 207.060,336.662 206.309,336.250 205.426 C 335.837 204.543,335.500 203.788,335.500 203.748 C 335.500 203.708,335.286 203.204,335.024 202.629 C 334.762 202.054,334.456 201.302,334.344 200.958 C 334.079 200.143,334.041 200.166,333.933 201.208 M218.000 220.000 L 218.000 227.000 222.208 227.001 C 227.164 227.002,227.755 227.106,229.234 228.237 C 230.083 228.887,230.770 229.990,231.019 231.105 L 231.220 232.000 244.818 231.993 L 258.417 231.985 257.767 231.643 C 256.322 230.881,255.071 229.192,254.673 227.465 C 254.579 227.057,254.506 223.803,254.504 219.875 L 254.500 213.000 236.250 213.000 L 218.000 213.000 218.000 220.000 " stroke="none" fill="#f7f9fb" fill-rule="evenodd"></path><path id="path4" d="M127.542 114.083 C 127.544 114.450,127.578 114.580,127.618 114.373 C 127.658 114.166,127.656 113.866,127.615 113.706 C 127.573 113.547,127.540 113.717,127.542 114.083 M331.035 122.672 C 330.514 123.094,329.077 123.613,327.759 123.856 L 326.667 124.058 326.667 125.018 L 326.667 125.979 327.292 125.882 C 328.645 125.673,330.221 124.531,331.119 123.109 C 331.591 122.363,331.567 122.240,331.035 122.672 M70.917 126.597 C 71.428 127.006,72.926 127.853,74.042 128.364 L 74.667 128.650 74.667 127.505 L 74.667 126.359 73.458 126.448 C 72.794 126.496,71.837 126.460,71.333 126.367 L 70.417 126.198 70.917 126.597 M68.312 129.922 C 65.455 131.394,63.163 135.818,61.752 142.583 C 60.328 149.409,59.206 162.491,59.649 167.083 C 59.907 169.743,60.801 170.448,64.667 171.040 C 67.113 171.414,75.061 171.161,75.961 170.680 C 76.391 170.450,77.642 168.026,77.382 167.926 C 73.587 166.470,69.590 160.319,68.104 153.647 C 67.437 150.654,66.848 145.287,67.429 147.500 C 68.822 152.801,72.668 160.116,75.377 162.612 C 77.206 164.298,82.447 167.071,89.250 169.953 C 90.442 170.458,91.822 171.054,92.317 171.278 C 95.985 172.937,98.201 169.622,94.861 167.473 C 92.316 165.835,85.978 161.377,85.667 161.005 C 85.621 160.950,85.230 160.620,84.799 160.272 C 83.942 159.579,83.404 158.408,82.113 154.417 C 80.260 148.691,80.182 148.348,80.098 145.621 C 79.827 136.863,77.727 131.802,73.833 130.527 C 72.802 130.189,71.439 129.866,70.583 129.756 C 70.125 129.697,69.600 129.620,69.417 129.586 C 69.233 129.552,68.736 129.703,68.312 129.922 M328.875 131.786 C 329.127 131.824,329.540 131.824,329.792 131.786 C 330.044 131.748,329.837 131.717,329.333 131.717 C 328.829 131.717,328.623 131.748,328.875 131.786 M304.705 145.000 C 304.705 145.321,304.740 145.452,304.782 145.292 C 304.823 145.131,304.823 144.869,304.782 144.708 C 304.740 144.548,304.705 144.679,304.705 145.000 M114.872 145.333 C 114.872 145.654,114.906 145.785,114.948 145.625 C 114.990 145.465,114.990 145.202,114.948 145.042 C 114.906 144.881,114.872 145.012,114.872 145.333 M346.055 146.583 C 346.055 147.225,346.086 147.467,346.122 147.121 C 346.158 146.775,346.157 146.250,346.120 145.955 C 346.083 145.659,346.054 145.942,346.055 146.583 M262.349 184.027 C 260.871 184.451,259.528 185.673,258.797 187.259 L 258.417 188.083 258.371 205.982 C 258.318 226.983,258.220 225.902,260.348 227.724 C 261.962 229.105,260.146 229.011,284.055 228.961 L 305.250 228.917 306.204 228.448 C 307.310 227.905,308.192 226.964,308.812 225.667 L 309.250 224.750 309.250 206.583 C 309.250 186.838,309.299 187.883,308.305 186.304 C 307.712 185.362,306.920 184.734,305.680 184.224 L 304.750 183.841 283.833 183.852 C 270.724 183.859,262.705 183.924,262.349 184.027 M264.258 187.576 C 265.308 188.626,263.948 190.246,262.784 189.331 C 262.165 188.843,262.160 187.994,262.772 187.512 C 263.349 187.058,263.758 187.076,264.258 187.576 M269.424 187.576 C 269.649 187.801,269.833 188.179,269.833 188.417 C 269.833 188.654,269.649 189.033,269.424 189.258 C 268.646 190.036,267.333 189.468,267.333 188.353 C 267.333 187.319,268.670 186.822,269.424 187.576 M274.575 187.330 C 275.499 187.682,275.460 189.102,274.516 189.493 C 273.160 190.055,272.207 188.044,273.513 187.377 C 274.004 187.127,274.037 187.125,274.575 187.330 M202.567 196.500 C 202.567 197.921,202.593 198.502,202.624 197.792 C 202.655 197.081,202.655 195.919,202.624 195.208 C 202.593 194.498,202.567 195.079,202.567 196.500 M291.796 221.926 C 292.272 222.259,292.300 223.084,291.844 223.327 C 291.635 223.440,288.692 223.500,283.440 223.500 C 274.648 223.500,274.833 223.520,274.833 222.581 C 274.833 221.672,274.887 221.667,283.500 221.667 C 290.404 221.667,291.474 221.700,291.796 221.926 " stroke="none" fill="#fb9648" fill-rule="evenodd"></path><path id="path5" d="M197.125 110.284 C 197.331 110.324,197.669 110.324,197.875 110.284 C 198.081 110.245,197.912 110.212,197.500 110.212 C 197.088 110.212,196.919 110.245,197.125 110.284 M174.410 119.708 L 173.583 120.583 174.458 119.756 C 174.940 119.301,175.333 118.908,175.333 118.881 C 175.333 118.757,175.179 118.895,174.410 119.708 M220.333 119.750 C 220.831 120.254,221.276 120.667,221.322 120.667 C 221.368 120.667,220.998 120.254,220.500 119.750 C 220.002 119.246,219.557 118.833,219.511 118.833 C 219.466 118.833,219.835 119.246,220.333 119.750 M164.872 141.000 C 164.872 141.321,164.906 141.452,164.948 141.292 C 164.990 141.131,164.990 140.869,164.948 140.708 C 164.906 140.548,164.872 140.679,164.872 141.000 M229.872 142.833 C 229.872 143.154,229.906 143.285,229.948 143.125 C 229.990 142.965,229.990 142.702,229.948 142.542 C 229.906 142.381,229.872 142.512,229.872 142.833 M164.872 144.500 C 164.872 144.821,164.906 144.952,164.948 144.792 C 164.990 144.631,164.990 144.369,164.948 144.208 C 164.906 144.048,164.872 144.179,164.872 144.500 M282.377 148.620 C 282.631 148.658,283.006 148.657,283.211 148.617 C 283.416 148.578,283.208 148.546,282.750 148.548 C 282.292 148.549,282.124 148.581,282.377 148.620 M282.129 158.122 C 282.521 158.157,283.121 158.157,283.463 158.121 C 283.804 158.085,283.483 158.057,282.750 158.057 C 282.017 158.058,281.737 158.087,282.129 158.122 M271.906 160.208 L 271.417 160.750 271.958 160.260 C 272.463 159.804,272.577 159.667,272.448 159.667 C 272.419 159.667,272.175 159.910,271.906 160.208 M293.167 159.885 C 293.167 159.914,293.410 160.158,293.708 160.427 L 294.250 160.917 293.760 160.375 C 293.304 159.870,293.167 159.757,293.167 159.885 M173.167 164.546 C 173.167 164.571,173.748 165.152,174.458 165.838 L 175.750 167.083 174.504 165.792 C 173.347 164.592,173.167 164.424,173.167 164.546 M220.410 165.708 L 219.583 166.583 220.458 165.756 C 220.940 165.301,221.333 164.908,221.333 164.881 C 221.333 164.757,221.179 164.895,220.410 165.708 M275.740 165.375 L 275.250 165.917 275.792 165.427 C 276.297 164.971,276.410 164.833,276.281 164.833 C 276.252 164.833,276.009 165.077,275.740 165.375 M289.333 165.052 C 289.333 165.081,289.577 165.325,289.875 165.594 L 290.417 166.083 289.927 165.542 C 289.471 165.037,289.333 164.923,289.333 165.052 M284.833 168.719 C 284.833 168.748,285.077 168.991,285.375 169.260 L 285.917 169.750 285.427 169.208 C 284.971 168.703,284.833 168.590,284.833 168.719 M63.333 170.858 C 63.333 170.892,63.410 171.181,63.504 171.501 C 65.614 178.680,68.383 195.994,67.644 197.376 C 67.512 197.622,67.517 197.676,67.660 197.587 C 67.805 197.498,67.819 197.838,67.718 198.942 C 67.512 201.197,67.564 207.988,67.806 210.417 C 68.217 214.529,69.185 221.621,69.661 224.000 C 69.743 224.412,69.939 225.450,70.096 226.306 C 70.278 227.301,70.467 227.895,70.621 227.954 C 70.753 228.005,70.925 228.205,71.003 228.398 C 71.104 228.648,71.149 228.672,71.156 228.481 C 71.166 228.237,71.258 228.241,72.109 228.522 C 73.195 228.881,74.900 228.927,76.172 228.634 L 77.036 228.435 76.928 227.480 C 76.372 222.570,77.036 211.084,78.491 200.460 C 78.968 196.970,79.445 192.786,79.664 190.167 C 79.768 188.929,79.911 187.724,79.983 187.489 C 80.096 187.121,80.037 187.010,79.559 186.697 C 75.597 184.099,73.835 176.520,75.933 171.099 C 76.048 170.800,75.996 170.788,75.070 170.904 C 70.850 171.432,64.989 171.433,63.616 170.906 C 63.461 170.847,63.333 170.825,63.333 170.858 M286.372 171.667 C 286.372 171.987,286.406 172.119,286.448 171.958 C 286.490 171.798,286.490 171.535,286.448 171.375 C 286.406 171.215,286.372 171.346,286.372 171.667 M59.712 172.167 C 59.712 172.579,59.745 172.748,59.784 172.542 C 59.824 172.335,59.824 171.998,59.784 171.792 C 59.745 171.585,59.712 171.754,59.712 172.167 M343.539 172.500 C 343.539 172.821,343.573 172.952,343.615 172.792 C 343.657 172.631,343.657 172.369,343.615 172.208 C 343.573 172.048,343.539 172.179,343.539 172.500 M279.667 173.885 C 279.667 173.914,279.910 174.158,280.208 174.427 L 280.750 174.917 280.260 174.375 C 279.804 173.870,279.667 173.757,279.667 173.885 M195.460 175.285 C 195.668 175.324,195.968 175.323,196.127 175.281 C 196.286 175.239,196.117 175.207,195.750 175.209 C 195.383 175.211,195.253 175.245,195.460 175.285 M198.794 175.285 C 199.001 175.324,199.301 175.323,199.460 175.281 C 199.620 175.239,199.450 175.207,199.083 175.209 C 198.717 175.211,198.586 175.245,198.794 175.285 M59.372 176.500 C 59.372 176.821,59.406 176.952,59.448 176.792 C 59.490 176.631,59.490 176.369,59.448 176.208 C 59.406 176.048,59.372 176.179,59.372 176.500 M201.875 181.782 C 202.035 181.823,202.298 181.823,202.458 181.782 C 202.619 181.740,202.487 181.705,202.167 181.705 C 201.846 181.705,201.715 181.740,201.875 181.782 M256.324 182.292 L 255.750 182.917 256.375 182.342 C 256.957 181.808,257.077 181.667,256.949 181.667 C 256.922 181.667,256.640 181.948,256.324 182.292 M194.742 191.708 L 194.083 192.417 194.792 191.758 C 195.450 191.145,195.577 191.000,195.450 191.000 C 195.423 191.000,195.105 191.319,194.742 191.708 M183.000 191.219 C 183.000 191.248,183.244 191.491,183.542 191.760 L 184.083 192.250 183.594 191.708 C 183.138 191.203,183.000 191.090,183.000 191.219 M226.000 191.750 C 226.311 192.071,226.603 192.333,226.649 192.333 C 226.695 192.333,226.478 192.071,226.167 191.750 C 225.856 191.429,225.564 191.167,225.518 191.167 C 225.472 191.167,225.689 191.429,226.000 191.750 M206.545 196.500 C 206.545 196.912,206.578 197.081,206.618 196.875 C 206.657 196.669,206.657 196.331,206.618 196.125 C 206.578 195.919,206.545 196.088,206.545 196.500 M214.212 196.500 C 214.212 196.912,214.245 197.081,214.284 196.875 C 214.324 196.669,214.324 196.331,214.284 196.125 C 214.245 195.919,214.212 196.088,214.212 196.500 M194.750 201.333 C 195.108 201.700,195.438 202.000,195.484 202.000 C 195.530 202.000,195.275 201.700,194.917 201.333 C 194.559 200.967,194.228 200.667,194.182 200.667 C 194.137 200.667,194.392 200.967,194.750 201.333 M183.406 201.375 L 182.917 201.917 183.458 201.427 C 183.963 200.971,184.077 200.833,183.948 200.833 C 183.919 200.833,183.675 201.077,183.406 201.375 M333.709 203.917 C 333.711 204.283,333.745 204.414,333.785 204.206 C 333.824 203.999,333.823 203.699,333.781 203.540 C 333.739 203.380,333.707 203.550,333.709 203.917 M176.243 220.000 C 176.243 223.896,176.265 225.490,176.291 223.542 C 176.318 221.594,176.318 218.406,176.291 216.458 C 176.265 214.510,176.243 216.104,176.243 220.000 M51.705 217.167 C 51.705 217.487,51.740 217.619,51.782 217.458 C 51.823 217.298,51.823 217.035,51.782 216.875 C 51.740 216.715,51.705 216.846,51.705 217.167 M350.050 220.833 C 350.050 221.338,350.081 221.544,350.119 221.292 C 350.158 221.040,350.158 220.627,350.119 220.375 C 350.081 220.123,350.050 220.329,350.050 220.833 M51.375 221.750 C 51.377 222.117,51.411 222.247,51.451 222.040 C 51.491 221.832,51.490 221.532,51.448 221.373 C 51.406 221.214,51.374 221.383,51.375 221.750 M346.231 226.167 C 346.231 227.313,346.258 227.781,346.290 227.208 C 346.323 226.635,346.323 225.698,346.290 225.125 C 346.258 224.552,346.231 225.021,346.231 226.167 " stroke="none" fill="#869cf2" fill-rule="evenodd"></path><path id="path6" d="M273.833 50.441 C 270.572 50.759,266.185 51.647,265.869 52.053 C 265.784 52.161,265.018 53.600,264.165 55.250 C 249.991 82.690,244.194 83.392,255.561 56.292 L 256.313 54.500 255.698 54.501 C 252.939 54.506,245.683 57.459,238.083 61.668 C 235.258 63.233,229.860 66.435,229.537 66.738 C 229.365 66.900,229.419 67.572,229.819 70.261 C 230.092 72.088,230.400 74.296,230.504 75.167 C 230.608 76.037,230.761 77.292,230.844 77.953 C 232.023 87.342,230.867 93.903,228.532 91.070 C 227.156 89.400,226.754 86.215,226.752 76.971 L 226.750 69.526 225.584 70.138 C 222.190 71.919,217.993 75.999,214.516 80.895 C 211.443 85.221,211.023 90.328,213.345 95.125 L 214.173 96.833 248.681 96.833 L 283.190 96.833 284.492 94.125 C 286.115 90.750,288.221 85.165,287.967 84.911 C 287.931 84.876,287.307 85.036,286.580 85.267 C 280.785 87.107,269.219 86.077,266.750 83.500 C 265.274 81.959,268.322 80.986,282.667 78.416 C 288.312 77.405,288.726 77.258,290.138 75.764 C 293.610 72.094,293.931 64.650,290.926 57.500 C 289.081 53.112,285.344 50.829,279.209 50.342 C 276.838 50.154,276.756 50.156,273.833 50.441 M157.083 65.760 C 156.900 65.802,156.337 65.920,155.833 66.021 C 153.418 66.507,151.414 68.008,150.431 70.068 C 147.433 76.349,148.552 83.075,152.757 84.049 C 153.395 84.197,154.629 84.468,155.500 84.651 C 156.371 84.835,158.171 85.215,159.500 85.496 C 165.159 86.693,167.030 87.493,166.130 88.332 C 164.396 89.948,156.370 90.402,152.687 89.093 C 152.286 88.950,151.930 88.833,151.896 88.833 C 151.724 88.833,151.892 89.542,152.483 91.308 C 153.125 93.227,153.432 94.006,154.287 95.875 L 154.725 96.833 178.517 96.833 L 202.309 96.833 202.682 95.875 C 204.213 91.932,202.495 87.451,197.593 82.602 C 196.479 81.500,193.797 79.500,193.433 79.500 C 193.378 79.500,193.333 81.281,193.332 83.458 C 193.329 90.892,192.445 94.980,190.963 94.411 C 189.733 93.939,190.021 86.902,191.593 79.049 C 191.725 78.388,191.833 77.814,191.833 77.773 C 191.833 77.502,184.217 72.945,181.408 71.536 C 178.369 70.012,174.666 68.693,173.911 68.866 C 173.751 68.903,173.892 69.435,174.433 70.833 C 179.713 84.473,178.813 88.052,172.754 77.508 C 171.689 75.654,167.699 67.848,167.479 67.187 C 167.408 66.973,165.791 66.497,163.667 66.065 C 162.460 65.820,157.765 65.602,157.083 65.760 M127.583 71.233 C 125.618 71.855,124.000 73.494,124.000 74.863 C 124.000 76.382,125.298 77.873,129.372 81.034 C 134.216 84.791,136.862 88.163,139.970 94.533 L 141.083 96.817 142.960 96.825 L 144.837 96.833 144.754 96.208 C 144.106 91.325,143.736 89.566,142.721 86.531 C 139.742 77.626,132.026 69.828,127.583 71.233 M110.103 76.508 C 107.787 77.090,105.664 79.253,105.176 81.530 C 104.620 84.120,106.699 85.734,113.583 88.059 C 120.025 90.235,122.156 91.392,126.987 95.338 L 128.819 96.833 132.659 96.833 C 134.772 96.833,136.500 96.773,136.500 96.699 C 136.500 95.536,131.137 88.115,128.213 85.231 C 122.690 79.783,113.909 75.553,110.103 76.508 M87.081 121.167 C 87.081 131.662,87.101 135.956,87.125 130.708 C 87.149 125.460,87.149 116.873,87.125 111.625 C 87.101 106.377,87.081 110.671,87.081 121.167 M330.460 107.118 C 330.668 107.158,330.968 107.156,331.127 107.115 C 331.286 107.073,331.117 107.040,330.750 107.042 C 330.383 107.044,330.253 107.078,330.460 107.118 M72.042 111.453 C 72.294 111.491,72.706 111.491,72.958 111.453 C 73.210 111.415,73.004 111.383,72.500 111.383 C 71.996 111.383,71.790 111.415,72.042 111.453 M319.888 119.917 C 319.889 120.558,319.919 120.800,319.955 120.455 C 319.991 120.109,319.990 119.584,319.954 119.288 C 319.917 118.992,319.887 119.275,319.888 119.917 M315.333 135.385 C 315.333 135.414,315.577 135.658,315.875 135.927 L 316.417 136.417 315.927 135.875 C 315.471 135.370,315.333 135.257,315.333 135.385 M87.068 150.167 C 87.068 151.679,87.093 152.298,87.124 151.542 C 87.155 150.785,87.155 149.548,87.124 148.792 C 87.093 148.035,87.068 148.654,87.068 150.167 M282.295 151.121 C 282.594 151.158,283.044 151.157,283.295 151.119 C 283.545 151.081,283.300 151.051,282.750 151.052 C 282.200 151.053,281.995 151.084,282.295 151.121 M282.295 155.621 C 282.594 155.658,283.044 155.657,283.295 155.619 C 283.545 155.581,283.300 155.551,282.750 155.552 C 282.200 155.553,281.995 155.584,282.295 155.621 M270.406 156.208 L 269.917 156.750 270.458 156.260 C 270.963 155.804,271.077 155.667,270.948 155.667 C 270.919 155.667,270.675 155.910,270.406 156.208 M294.833 156.052 C 294.833 156.081,295.077 156.325,295.375 156.594 L 295.917 157.083 295.427 156.542 C 294.971 156.037,294.833 155.923,294.833 156.052 M267.734 157.125 C 267.909 157.331,268.171 157.494,268.317 157.487 C 268.543 157.476,268.546 157.460,268.333 157.382 C 268.196 157.331,267.933 157.168,267.750 157.020 C 267.420 156.752,267.419 156.753,267.734 157.125 M290.333 157.885 C 290.333 157.924,290.652 158.166,291.042 158.423 C 291.431 158.680,291.662 158.784,291.554 158.653 C 291.348 158.403,290.333 157.765,290.333 157.885 M272.409 159.875 L 271.750 160.583 272.458 159.925 C 273.117 159.312,273.243 159.167,273.117 159.167 C 273.090 159.167,272.771 159.485,272.409 159.875 M292.667 159.552 C 292.667 159.581,292.910 159.825,293.208 160.094 L 293.750 160.583 293.260 160.042 C 292.804 159.537,292.667 159.423,292.667 159.552 M293.987 161.292 C 294.066 161.867,294.078 161.879,294.133 161.438 C 294.166 161.175,294.127 160.894,294.047 160.813 C 293.963 160.729,293.937 160.934,293.987 161.292 M273.742 161.875 L 273.083 162.583 273.792 161.925 C 274.450 161.312,274.577 161.167,274.450 161.167 C 274.423 161.167,274.105 161.485,273.742 161.875 M281.542 162.615 C 281.702 162.657,281.965 162.657,282.125 162.615 C 282.285 162.573,282.154 162.539,281.833 162.539 C 281.512 162.539,281.381 162.573,281.542 162.615 M283.375 162.615 C 283.535 162.657,283.798 162.657,283.958 162.615 C 284.119 162.573,283.987 162.539,283.667 162.539 C 283.346 162.539,283.215 162.573,283.375 162.615 M282.295 164.954 C 282.594 164.991,283.044 164.990,283.295 164.952 C 283.545 164.914,283.300 164.884,282.750 164.885 C 282.200 164.886,281.995 164.917,282.295 164.954 M277.406 167.208 L 276.917 167.750 277.458 167.260 C 277.963 166.804,278.077 166.667,277.948 166.667 C 277.919 166.667,277.675 166.910,277.406 167.208 M287.500 166.719 C 287.500 166.748,287.744 166.991,288.042 167.260 L 288.583 167.750 288.094 167.208 C 287.638 166.703,287.500 166.590,287.500 166.719 M59.709 170.917 C 59.711 171.283,59.745 171.414,59.785 171.206 C 59.824 170.999,59.823 170.699,59.781 170.540 C 59.739 170.380,59.707 170.550,59.709 170.917 M343.545 171.333 C 343.545 171.746,343.578 171.915,343.618 171.708 C 343.657 171.502,343.657 171.165,343.618 170.958 C 343.578 170.752,343.545 170.921,343.545 171.333 M59.372 175.500 C 59.372 175.821,59.406 175.952,59.448 175.792 C 59.490 175.631,59.490 175.369,59.448 175.208 C 59.406 175.048,59.372 175.179,59.372 175.500 M343.888 178.750 C 343.889 179.392,343.919 179.634,343.955 179.288 C 343.991 178.942,343.990 178.417,343.954 178.121 C 343.917 177.825,343.887 178.108,343.888 178.750 M59.039 179.167 C 59.039 179.487,59.073 179.619,59.115 179.458 C 59.157 179.298,59.157 179.035,59.115 178.875 C 59.073 178.715,59.039 178.846,59.039 179.167 M217.471 183.792 C 224.468 183.816,235.868 183.816,242.805 183.792 C 249.741 183.768,244.017 183.748,230.083 183.748 C 216.150 183.748,210.475 183.768,217.471 183.792 M344.212 184.833 C 344.212 185.246,344.245 185.415,344.284 185.208 C 344.324 185.002,344.324 184.665,344.284 184.458 C 344.245 184.252,344.212 184.421,344.212 184.833 M79.881 188.250 C 79.882 188.708,79.915 188.876,79.953 188.623 C 79.991 188.369,79.990 187.994,79.951 187.789 C 79.911 187.584,79.880 187.792,79.881 188.250 M79.545 191.833 C 79.545 192.246,79.578 192.415,79.618 192.208 C 79.657 192.002,79.657 191.665,79.618 191.458 C 79.578 191.252,79.545 191.421,79.545 191.833 M87.077 199.583 C 87.077 203.983,87.099 205.759,87.125 203.530 C 87.151 201.301,87.151 197.701,87.125 195.530 C 87.099 193.359,87.077 195.183,87.077 199.583 M79.205 194.833 C 79.205 195.154,79.240 195.285,79.282 195.125 C 79.323 194.965,79.323 194.702,79.282 194.542 C 79.240 194.381,79.205 194.512,79.205 194.833 M67.623 197.625 C 67.588 197.694,67.612 197.975,67.677 198.250 C 67.792 198.742,67.794 198.739,67.814 198.125 C 67.832 197.532,67.763 197.349,67.623 197.625 M78.705 199.000 C 78.705 199.321,78.740 199.452,78.782 199.292 C 78.823 199.131,78.823 198.869,78.782 198.708 C 78.740 198.548,78.705 198.679,78.705 199.000 M333.836 200.458 C 333.834 200.848,333.862 201.167,333.898 201.167 C 334.037 201.167,334.100 200.162,333.973 199.962 C 333.892 199.835,333.837 200.033,333.836 200.458 M67.400 203.667 C 67.400 205.088,67.426 205.669,67.457 204.958 C 67.488 204.248,67.488 203.085,67.457 202.375 C 67.426 201.665,67.400 202.246,67.400 203.667 M78.039 203.833 C 78.039 204.154,78.073 204.285,78.115 204.125 C 78.157 203.965,78.157 203.702,78.115 203.542 C 78.073 203.381,78.039 203.512,78.039 203.833 M77.705 206.667 C 77.705 206.987,77.740 207.119,77.782 206.958 C 77.823 206.798,77.823 206.535,77.782 206.375 C 77.740 206.215,77.705 206.346,77.705 206.667 M333.553 208.500 C 333.553 209.096,333.584 209.340,333.621 209.042 C 333.658 208.744,333.658 208.256,333.621 207.958 C 333.584 207.660,333.553 207.904,333.553 208.500 M77.542 208.250 C 77.544 208.617,77.578 208.747,77.618 208.540 C 77.658 208.332,77.656 208.032,77.615 207.873 C 77.573 207.714,77.540 207.883,77.542 208.250 M67.709 210.250 C 67.711 210.617,67.745 210.747,67.785 210.540 C 67.824 210.332,67.823 210.032,67.781 209.873 C 67.739 209.714,67.707 209.883,67.709 210.250 M77.217 211.833 C 77.217 212.338,77.248 212.544,77.286 212.292 C 77.324 212.040,77.324 211.627,77.286 211.375 C 77.248 211.123,77.217 211.329,77.217 211.833 M67.875 211.917 C 67.877 212.283,67.911 212.414,67.951 212.206 C 67.991 211.999,67.990 211.699,67.948 211.540 C 67.906 211.380,67.874 211.550,67.875 211.917 M113.125 212.958 C 124.698 212.982,143.635 212.982,155.208 212.958 C 166.781 212.935,157.313 212.915,134.167 212.915 C 111.021 212.915,101.552 212.935,113.125 212.958 M227.029 212.958 C 232.041 212.983,240.291 212.983,245.362 212.958 C 250.434 212.934,246.333 212.914,236.250 212.914 C 226.167 212.914,222.017 212.934,227.029 212.958 M77.042 213.917 C 77.044 214.283,77.078 214.414,77.118 214.206 C 77.158 213.999,77.156 213.699,77.115 213.540 C 77.073 213.380,77.040 213.550,77.042 213.917 M333.212 214.667 C 333.212 215.079,333.245 215.248,333.284 215.042 C 333.324 214.835,333.324 214.498,333.284 214.292 C 333.245 214.085,333.212 214.254,333.212 214.667 M51.872 214.667 C 51.872 214.987,51.906 215.119,51.948 214.958 C 51.990 214.798,51.990 214.535,51.948 214.375 C 51.906 214.215,51.872 214.346,51.872 214.667 M68.209 214.917 C 68.211 215.283,68.245 215.414,68.285 215.206 C 68.324 214.999,68.323 214.699,68.281 214.540 C 68.239 214.380,68.207 214.550,68.209 214.917 M76.893 217.167 C 76.893 218.037,76.922 218.394,76.956 217.958 C 76.990 217.523,76.990 216.810,76.956 216.375 C 76.922 215.940,76.893 216.296,76.893 217.167 M133.617 216.416 C 131.482 216.958,131.601 218.156,134.178 222.091 C 136.033 224.923,138.464 230.542,137.970 230.855 C 137.312 231.273,137.088 231.043,136.363 229.208 C 134.280 223.932,131.886 221.867,129.493 223.280 C 127.697 224.341,128.660 225.789,133.210 228.867 C 137.034 231.455,136.999 231.244,133.635 231.406 C 132.564 231.458,131.477 231.594,131.219 231.708 C 130.854 231.871,125.363 231.935,106.417 232.001 C 83.975 232.079,85.236 232.089,122.625 232.126 C 161.145 232.165,163.166 232.152,163.154 231.875 C 163.146 231.701,163.107 231.667,163.056 231.792 C 162.990 231.955,160.956 232.000,153.671 232.000 L 144.369 232.000 144.267 231.591 C 144.041 230.692,143.097 230.248,141.469 230.272 C 140.426 230.288,140.000 230.237,140.000 230.095 C 140.000 228.853,139.013 223.225,138.507 221.583 C 137.203 217.350,135.796 215.863,133.617 216.416 M350.052 219.083 C 350.053 219.633,350.084 219.838,350.121 219.539 C 350.158 219.239,350.157 218.789,350.119 218.539 C 350.081 218.288,350.051 218.533,350.052 219.083 M51.381 220.417 C 51.382 220.875,51.415 221.043,51.453 220.789 C 51.491 220.536,51.490 220.161,51.451 219.956 C 51.411 219.751,51.380 219.958,51.381 220.417 M350.667 222.385 C 350.667 222.414,350.910 222.658,351.208 222.927 L 351.750 223.417 351.260 222.875 C 350.804 222.370,350.667 222.257,350.667 222.385 M51.053 226.167 C 51.053 226.762,51.084 227.006,51.121 226.708 C 51.158 226.410,51.158 225.923,51.121 225.625 C 51.084 225.327,51.053 225.571,51.053 226.167 M76.888 226.250 C 76.889 226.892,76.919 227.134,76.955 226.788 C 76.991 226.442,76.990 225.917,76.954 225.621 C 76.917 225.325,76.887 225.608,76.888 226.250 M57.039 227.167 C 57.039 227.487,57.073 227.619,57.115 227.458 C 57.157 227.298,57.157 227.035,57.115 226.875 C 57.073 226.715,57.039 226.846,57.039 227.167 M169.698 227.124 C 170.862 227.153,172.812 227.153,174.032 227.125 C 175.252 227.096,174.300 227.073,171.917 227.073 C 169.533 227.073,168.535 227.096,169.698 227.124 M220.125 227.125 C 221.340 227.153,223.327 227.153,224.542 227.125 C 225.756 227.096,224.762 227.073,222.333 227.073 C 219.904 227.073,218.910 227.096,220.125 227.125 M332.561 229.083 C 332.561 230.000,332.589 230.354,332.623 229.869 C 332.657 229.385,332.656 228.635,332.622 228.203 C 332.588 227.770,332.560 228.167,332.561 229.083 M229.167 228.219 C 229.167 228.248,229.410 228.491,229.708 228.760 L 230.250 229.250 229.760 228.708 C 229.304 228.203,229.167 228.090,229.167 228.219 M231.023 231.708 L 231.000 232.167 244.875 232.126 L 258.750 232.085 244.970 232.042 L 231.190 231.998 231.117 231.624 C 231.056 231.305,231.042 231.317,231.023 231.708 M319.667 231.806 C 319.667 231.949,318.253 232.010,314.292 232.039 L 308.917 232.078 314.239 232.125 C 319.228 232.169,320.157 232.101,319.781 231.725 C 319.718 231.662,319.667 231.699,319.667 231.806 M63.000 232.042 C 63.000 232.110,64.969 232.151,67.375 232.132 C 71.758 232.097,71.255 232.040,65.875 231.959 C 64.293 231.936,63.000 231.973,63.000 232.042 M349.058 232.042 C 349.015 232.110,355.866 232.149,364.282 232.127 C 372.698 232.106,377.146 232.068,374.167 232.044 C 359.985 231.930,349.127 231.928,349.058 232.042 M29.804 232.125 C 33.776 232.150,40.226 232.150,44.138 232.125 C 48.049 232.100,44.800 232.080,36.917 232.080 C 29.033 232.080,25.833 232.100,29.804 232.125 M334.969 232.125 C 336.464 232.152,338.864 232.152,340.302 232.125 C 341.740 232.097,340.517 232.074,337.583 232.074 C 334.650 232.074,333.473 232.097,334.969 232.125 " stroke="none" fill="#cdd7fb" fill-rule="evenodd"></path><path id="path7" d="M325.231 112.817 C 322.885 114.248,322.576 120.564,324.707 123.556 L 325.053 124.043 326.568 123.955 C 328.255 123.857,329.971 123.381,330.892 122.756 C 331.607 122.270,331.627 122.305,331.107 123.128 C 330.264 124.462,328.425 125.829,327.464 125.836 C 326.888 125.840,326.720 126.014,326.500 126.833 C 326.224 127.860,325.271 128.745,324.063 129.096 L 323.132 129.367 323.900 129.914 C 327.273 132.311,331.426 132.237,335.228 129.709 L 336.380 128.944 335.235 128.573 C 334.401 128.302,333.963 128.050,333.622 127.642 C 332.649 126.478,331.911 122.435,332.412 121.013 C 332.552 120.616,332.667 119.813,332.667 119.229 L 332.667 118.167 332.151 118.167 C 330.187 118.167,328.126 116.555,326.665 113.878 C 325.817 112.324,325.919 112.398,325.231 112.817 M75.833 116.322 C 75.833 117.006,75.400 118.994,75.072 119.814 C 74.781 120.540,74.765 120.548,73.796 120.504 C 72.553 120.446,72.500 120.514,72.500 122.153 C 72.500 124.247,71.459 125.500,69.720 125.500 C 69.317 125.500,69.201 125.562,69.269 125.739 C 69.362 125.981,69.070 128.819,68.893 129.396 C 68.841 129.568,68.862 129.669,68.940 129.620 C 69.019 129.572,69.721 129.632,70.500 129.753 C 71.732 129.945,72.320 130.082,74.102 130.592 C 74.395 130.677,74.471 130.605,74.560 130.159 C 74.827 128.821,74.780 128.740,73.302 127.994 C 72.118 127.397,70.500 126.404,70.500 126.274 C 70.500 126.251,70.998 126.306,71.606 126.397 C 72.806 126.576,75.047 126.371,76.250 125.971 C 77.642 125.509,77.860 122.902,76.888 118.333 C 76.443 116.240,75.833 115.078,75.833 116.322 M326.939 121.217 C 327.008 121.285,326.934 121.471,326.776 121.629 C 326.162 122.243,324.013 121.820,324.418 121.165 C 324.552 120.947,326.714 120.992,326.939 121.217 M188.580 142.750 C 188.580 152.192,188.600 156.030,188.625 151.279 C 188.650 146.528,188.650 138.803,188.625 134.112 C 188.600 129.421,188.580 133.308,188.580 142.750 M164.890 142.750 C 164.891 143.483,164.920 143.763,164.956 143.371 C 164.991 142.979,164.990 142.379,164.954 142.037 C 164.919 141.696,164.890 142.017,164.890 142.750 M300.038 142.042 C 300.074 142.156,300.455 142.362,300.884 142.500 C 301.314 142.637,301.665 142.800,301.666 142.862 C 301.667 143.034,299.440 143.500,298.613 143.500 C 297.676 143.500,296.833 143.666,296.833 143.851 C 296.833 144.438,299.837 145.332,301.822 145.337 C 302.699 145.339,303.698 145.407,304.042 145.486 C 304.655 145.629,304.667 145.623,304.667 145.141 C 304.667 144.871,304.781 144.430,304.920 144.161 C 305.435 143.164,304.404 142.414,302.058 142.079 C 300.020 141.787,299.957 141.786,300.038 142.042 M314.042 152.448 C 314.202 152.490,314.465 152.490,314.625 152.448 C 314.785 152.406,314.654 152.372,314.333 152.372 C 314.012 152.372,313.881 152.406,314.042 152.448 M59.705 158.833 C 59.705 159.154,59.740 159.285,59.782 159.125 C 59.823 158.965,59.823 158.702,59.782 158.542 C 59.740 158.381,59.705 158.512,59.705 158.833 M332.726 163.042 C 330.822 165.034,330.242 166.383,331.794 165.208 C 332.127 164.956,332.359 164.825,332.310 164.917 C 332.261 165.008,331.939 165.555,331.594 166.131 C 330.829 167.412,330.887 167.667,331.942 167.667 C 333.417 167.667,334.951 166.546,335.633 164.971 L 335.970 164.191 335.316 163.759 C 334.957 163.520,334.449 163.102,334.188 162.830 C 333.579 162.192,333.531 162.199,332.726 163.042 M98.250 169.360 C 97.883 169.448,97.344 169.493,97.050 169.461 C 96.550 169.406,96.511 169.440,96.411 170.032 C 96.353 170.379,96.104 170.877,95.858 171.141 L 95.410 171.619 95.914 171.838 C 96.190 171.958,97.017 172.332,97.750 172.668 C 100.750 174.044,101.346 174.104,102.292 173.123 C 103.443 171.930,103.366 171.251,102.067 171.117 C 100.744 170.980,98.764 169.860,99.792 169.830 C 99.860 169.828,100.104 169.679,100.333 169.500 L 100.750 169.174 99.833 169.187 C 99.329 169.194,98.617 169.272,98.250 169.360 M196.788 175.287 C 197.084 175.324,197.609 175.324,197.955 175.288 C 198.300 175.252,198.058 175.222,197.417 175.221 C 196.775 175.221,196.492 175.250,196.788 175.287 M271.362 180.458 C 277.382 180.483,287.282 180.483,293.362 180.458 C 299.442 180.434,294.517 180.414,282.417 180.414 C 270.317 180.414,265.342 180.434,271.362 180.458 M254.579 197.417 C 254.579 203.650,254.600 206.176,254.625 203.029 C 254.650 199.883,254.650 194.783,254.625 191.696 C 254.600 188.609,254.579 191.183,254.579 197.417 M198.734 196.500 C 198.734 197.921,198.759 198.502,198.791 197.792 C 198.822 197.081,198.822 195.919,198.791 195.208 C 198.759 194.498,198.734 195.079,198.734 196.500 M200.900 196.500 C 200.900 197.829,200.925 198.373,200.957 197.708 C 200.989 197.044,200.989 195.956,200.957 195.292 C 200.925 194.627,200.900 195.171,200.900 196.500 M219.898 196.500 C 219.898 197.646,219.924 198.115,219.957 197.542 C 219.989 196.969,219.989 196.031,219.957 195.458 C 219.924 194.885,219.898 195.354,219.898 196.500 M185.379 196.500 C 185.379 196.912,185.411 197.081,185.451 196.875 C 185.491 196.669,185.491 196.331,185.451 196.125 C 185.411 195.919,185.379 196.088,185.379 196.500 M171.705 196.500 C 171.705 196.821,171.740 196.952,171.782 196.792 C 171.823 196.631,171.823 196.369,171.782 196.208 C 171.740 196.048,171.705 196.179,171.705 196.500 M254.576 219.750 C 254.576 223.600,254.598 225.151,254.625 223.197 C 254.652 221.243,254.651 218.093,254.625 216.197 C 254.598 214.301,254.576 215.900,254.576 219.750 " stroke="none" fill="#eeb6a2" fill-rule="evenodd"></path><path id="path8" d="M325.375 121.948 C 325.535 121.990,325.798 121.990,325.958 121.948 C 326.119 121.906,325.987 121.872,325.667 121.872 C 325.346 121.872,325.215 121.906,325.375 121.948 M69.209 126.250 C 69.211 126.617,69.245 126.747,69.285 126.540 C 69.324 126.332,69.323 126.032,69.281 125.873 C 69.239 125.714,69.207 125.883,69.209 126.250 M74.720 128.333 C 74.720 128.929,74.750 129.173,74.787 128.875 C 74.824 128.577,74.824 128.090,74.787 127.792 C 74.750 127.494,74.720 127.737,74.720 128.333 M313.081 206.417 C 313.081 217.692,313.101 222.329,313.125 216.721 C 313.149 211.114,313.149 201.889,313.125 196.221 C 313.101 190.554,313.081 195.142,313.081 206.417 M255.833 230.052 C 255.833 230.081,256.077 230.325,256.375 230.594 L 256.917 231.083 256.427 230.542 C 255.971 230.037,255.833 229.923,255.833 230.052 " stroke="none" fill="#f5c9ab" fill-rule="evenodd"></path></g></svg>